<svg width="25" height="25" viewBox="0 0 25 25" fill="none" xmlns="http://www.w3.org/2000/svg">
<path fill-rule="evenodd" clip-rule="evenodd" d="M7.06549 7.63818L6.53516 7.10785L5.4745 8.16851L6.00483 8.69884L8.7245 11.4185H1.53516V12.9185H8.7245L6.00483 15.6382L5.4745 16.1685L6.53516 17.2292L7.06549 16.6988L11.0655 12.6988L11.5958 12.1685L11.0655 11.6382L7.06549 7.63818ZM16.3458 11.4185H23.5352V12.9185H16.3458L19.0655 15.6382L19.5958 16.1685L18.5352 17.2292L18.0048 16.6988L14.0048 12.6988L13.4745 12.1685L14.0048 11.6382L18.0048 7.63818L18.5352 7.10785L19.5958 8.16851L19.0655 8.69884L16.3458 11.4185Z" fill="#1493A4"/>
</svg>
