<svg width="25" height="25" viewBox="0 0 25 25" fill="none" xmlns="http://www.w3.org/2000/svg">
<path d="M18.6963 21.1684C19.5247 21.1684 20.1963 20.4968 20.1963 19.6684C20.1963 18.84 19.5247 18.1684 18.6963 18.1684C17.8679 18.1684 17.1963 18.84 17.1963 19.6684C17.1963 20.4968 17.8679 21.1684 18.6963 21.1684Z" fill="#1493A4" stroke="#1493A4" stroke-width="1.5" stroke-linecap="round" stroke-linejoin="round"/>
<path d="M10.6963 21.1684C11.5247 21.1684 12.1963 20.4968 12.1963 19.6684C12.1963 18.84 11.5247 18.1684 10.6963 18.1684C9.86786 18.1684 9.19629 18.84 9.19629 19.6684C9.19629 20.4968 9.86786 21.1684 10.6963 21.1684Z" fill="#1493A4" stroke="#1493A4" stroke-width="1.5" stroke-linecap="round" stroke-linejoin="round"/>
<path d="M5.89629 4.8607H21.1963L19.3963 14.1684H7.69629L5.89629 4.8607ZM5.89629 4.8607C5.74629 4.2966 4.99629 3.1684 3.19629 3.1684" stroke="#1493A4" stroke-width="1.5" stroke-linecap="round" stroke-linejoin="round"/>
<path d="M19.1963 14.1684H7.31057H5.69299C4.06163 14.1684 3.19629 14.9496 3.19629 16.1684C3.19629 17.3871 4.06163 18.1684 5.69299 18.1684H18.7391" stroke="#1493A4" stroke-width="1.5" stroke-linecap="round" stroke-linejoin="round"/>
</svg>
